<svg xmlns="http://www.w3.org/2000/svg" width="1920" height="938.632" viewBox="0 0 1920 938.632"><defs><style>.a{opacity:0.16;}.b{fill:#50b6df;}</style></defs><g transform="translate(0 -2189.017)"><g class="a"><path class="b" d="M496.485,2687.349c.564.386,1.127.772,1.7,1.137.678.459,1.367.918,2.066,1.367.74-.376,1.481-.73,2.222-1.085-.7-.459-1.377-.908-2.066-1.367l-3.37-2.243C496.861,2685.888,496.683,2686.629,496.485,2687.349ZM1761.7,2768.878c.678.448,1.377.9,2.055,1.356a9.32,9.32,0,0,0,.918-.438c.438-.2.877-.418,1.315-.647.282-.125.563-.261.824-.407.011-.8.021-1.6.031-2.4-.709.355-1.429.71-2.138,1.064-.261.126-.522.261-.783.387C1763.182,2768.158,1762.431,2768.512,1761.7,2768.878ZM496.485,2687.349c.564.386,1.127.772,1.7,1.137.741-.365,1.481-.73,2.222-1.085l-3.37-2.243C496.861,2685.888,496.683,2686.629,496.485,2687.349Zm1267.438,80.444c.261.156.511.323.762.49,0-.3.01-.595.021-.877C1764.445,2767.532,1764.184,2767.667,1763.923,2767.793ZM58.8,2189.017q9.358,19.078,19.344,37.8c80.235,150.443,188.682,281.594,322.306,389.8Q446.2,2653.679,494.6,2686.1c.626.428,1.252.835,1.888,1.252.564.386,1.127.772,1.7,1.137.678.459,1.367.918,2.066,1.367A1267.434,1267.434,0,0,0,1090.8,2895.74a1277.213,1277.213,0,0,0,672.96-125.506,9.32,9.32,0,0,0,.918-.438c.438-.2.877-.418,1.315-.647.282-.125.563-.261.824-.407q17.795-8.78,35.276-18.1A1266.854,1266.854,0,0,0,1920,2679.294v-2.577a1267.418,1267.418,0,0,1-118.912,72.034q-16.982,9.047-34.244,17.591c-.709.355-1.429.71-2.138,1.064-.261.126-.522.261-.783.387-.741.365-1.492.719-2.222,1.085a1275.323,1275.323,0,0,1-912.36,79.9,1258.939,1258.939,0,0,1-346.867-160.01c-.7-.459-1.377-.908-2.066-1.367l-3.37-2.243c-.626-.417-1.262-.845-1.878-1.273q-47.969-32.161-93.36-68.925C268.395,2506.93,160.146,2376,80.037,2225.817q-9.735-18.234-18.854-36.8Zm1705.119,578.776c.261.156.511.323.762.49,0-.3.01-.595.021-.877C1764.445,2767.532,1764.184,2767.667,1763.923,2767.793ZM496.485,2687.349c.564.386,1.127.772,1.7,1.137.741-.365,1.481-.73,2.222-1.085l-3.37-2.243C496.861,2685.888,496.683,2686.629,496.485,2687.349ZM1761.7,2768.878c.678.448,1.377.9,2.055,1.356a9.32,9.32,0,0,0,.918-.438c.438-.2.877-.418,1.315-.647.282-.125.563-.261.824-.407.011-.8.021-1.6.031-2.4-.709.355-1.429.71-2.138,1.064-.261.126-.522.261-.783.387C1763.182,2768.158,1762.431,2768.512,1761.7,2768.878ZM496.485,2687.349c.564.386,1.127.772,1.7,1.137.678.459,1.367.918,2.066,1.367.74-.376,1.481-.73,2.222-1.085-.7-.459-1.377-.908-2.066-1.367l-3.37-2.243C496.861,2685.888,496.683,2686.629,496.485,2687.349Z"/><path class="b" d="M0,3127.649H2.556q33.227-49.878,71.377-97c108.03-133.4,238.962-241.653,389.154-321.763q14.68-7.841,29.579-15.275c.856-.428,1.691-.845,2.536-1.262,1.68-.845,3.37-1.67,5.05-2.494.74-.376,1.481-.73,2.222-1.085a1270.578,1270.578,0,0,1,1259.227,80.11c.678.448,1.377.9,2.055,1.356.3.209.616.407.918.605.71.47,1.419.949,2.129,1.429q49.111,32.8,95.562,70.407,29.656,24.007,57.635,49.528v-2.9q-27.342-24.854-56.29-48.287-47.044-38.109-96.9-71.314c-.261-.188-.542-.376-.824-.553-.428-.282-.866-.574-1.3-.866-.251-.167-.5-.334-.762-.49A1261.065,1261.065,0,0,0,1415.418,2606.8a1277.449,1277.449,0,0,0-915.01,80.6c-.741.355-1.481.72-2.222,1.085-.762.365-1.513.741-2.275,1.117-.834.417-1.68.834-2.525,1.262q-15.79,7.857-31.311,16.131c-150.443,80.234-281.583,188.671-389.8,322.3Q33.617,3077.036,0,3127.649Zm1763.756-357.415c.3.209.616.407.918.605V2769.8A9.32,9.32,0,0,1,1763.756,2770.234ZM495.2,2692.347c1.68-.845,3.37-1.67,5.05-2.494-.7-.449-1.388-.908-2.066-1.367-.762.365-1.513.741-2.275,1.117C495.692,2690.521,495.463,2691.439,495.2,2692.347Z"/><path class="b" d="M492.666,2693.609c.856-.428,1.691-.845,2.536-1.262.261-.908.49-1.826.709-2.744.2-.752.4-1.5.574-2.254.2-.72.376-1.461.553-2.191-.626-.417-1.262-.845-1.878-1.273-.188.741-.365,1.482-.563,2.212-.4,1.6-.8,3.182-1.211,4.768C493.146,2691.783,492.917,2692.691,492.666,2693.609Zm.72-2.744c.845-.428,1.691-.845,2.525-1.262.2-.752.4-1.5.574-2.254.2-.72.376-1.461.553-2.191-.626-.417-1.262-.845-1.878-1.273-.188.741-.365,1.482-.563,2.212C494.2,2687.693,493.793,2689.279,493.386,2690.865ZM285.36,3127.649h2.661a1262.738,1262.738,0,0,0,197.916-401.33q4.867-16.887,9.265-33.972c.261-.908.49-1.826.709-2.744.2-.752.4-1.5.574-2.254.2-.72.376-1.461.553-2.191a1272.491,1272.491,0,0,0,33.8-200.879,1281.831,1281.831,0,0,0-2.244-244.377q-2.676-25.479-6.385-50.885h-2.16q3.741,25.5,6.427,51.1a1280.941,1280.941,0,0,1,2.233,243.97,1273.223,1273.223,0,0,1-33.544,199.794c-.188.741-.365,1.482-.563,2.212-.4,1.6-.8,3.182-1.211,4.768-.24.918-.469,1.826-.72,2.744q-4.177,16.121-8.785,32.115A1260.7,1260.7,0,0,1,285.36,3127.649Zm208.026-436.784c.845-.428,1.691-.845,2.525-1.262.2-.752.4-1.5.574-2.254.2-.72.376-1.461.553-2.191-.626-.417-1.262-.845-1.878-1.273-.188.741-.365,1.482-.563,2.212C494.2,2687.693,493.793,2689.279,493.386,2690.865Zm-.72,2.744c.856-.428,1.691-.845,2.536-1.262.261-.908.49-1.826.709-2.744.2-.752.4-1.5.574-2.254.2-.72.376-1.461.553-2.191-.626-.417-1.262-.845-1.878-1.273-.188.741-.365,1.482-.563,2.212-.4,1.6-.8,3.182-1.211,4.768C493.146,2691.783,492.917,2692.691,492.666,2693.609Z"/><path class="b" d="M1771.644,2913.373a1282.945,1282.945,0,0,0,41.223,214.276h2.212a1276.666,1276.666,0,0,1-48.276-355.381c0-.855,0-1.711.01-2.566,0-.313.011-.637,0-.96.011-.8.021-1.6.031-2.4.324-32.459,1.9-64.908,4.7-97.158a1266.153,1266.153,0,0,1,140.708-480.167h-2.421A1268.6,1268.6,0,0,0,1769.4,2669q-4.242,49.017-4.695,98.41c-.011.282-.021.574-.021.877-.011.511-.011,1.012-.011,1.513v1.043A1282.139,1282.139,0,0,0,1771.644,2913.373Zm-6.97-143.577v1.043c.71.47,1.419.949,2.129,1.429,0-.855,0-1.711.01-2.566,0-.313.011-.637,0-.96-.261.146-.542.282-.824.407C1765.551,2769.378,1765.112,2769.6,1764.674,2769.8Z"/></g></g></svg>