<svg xmlns="http://www.w3.org/2000/svg" width="306.93" height="306.93" viewBox="0 0 306.93 306.93"><defs><style>.a{fill:#71c9f0;opacity:0.78;}.b{fill:#fff;}</style></defs><path class="a" d="M0,0H206.93a100,100,0,0,1,100,100V306.93a0,0,0,0,1,0,0H100a100,100,0,0,1-100-100V0A0,0,0,0,1,0,0Z"/><path class="b" d="M883.435,4483.593c-25.586-12.316-47.928-17.3-61.9-18.569-18.018-1.611-37.541-2.141-58.866,8.119a82.632,82.632,0,0,0-32.03,27.048c-4.133,6.084-11.023,16.513-11.892,31.627-.063.933-.085,2.035-.085,3.264l-.021.021s-1.272,13.991,5.893,24.738l3.71,5.914s32.432-49.772,86.359-69.358c1.081-.382,2.162-.764,3.264-1.1.721-.254,1.463-.487,2.205-.72,1.208-.4,2.459-.785,3.71-1.1.635-.19,1.272-.381,1.886-.551a1.055,1.055,0,0,1,.679,1.993,222.735,222.735,0,0,0-46.211,26.348,226.5,226.5,0,0,0-67.833,81.76,2.116,2.116,0,0,0,1.908,3.052h7.334a4.249,4.249,0,0,0,3.773-2.332,233.327,233.327,0,0,1,14.839-24.991c1.484,1.165,2.8,2.1,3.794,2.776a62.379,62.379,0,0,0,26.773,10.451,55.385,55.385,0,0,0,27.175-2.4c7.017-2.543,14.542-7.016,23.19-16.406,22.958-24.95,16.959-44.431,36.27-66.455a80.585,80.585,0,0,1,26.03-19.332A2.106,2.106,0,0,0,883.435,4483.593Z" transform="translate(-628.07 -4384.073)"/></svg>