<svg xmlns="http://www.w3.org/2000/svg" width="307.417" height="306.93" viewBox="0 0 307.417 306.93"><defs><style>.a{fill:#71c9f0;}.a,.d{opacity:0.78;}.b,.e{fill:#fff;}.c{opacity:0;}.d{fill:#005a80;}.e{font-size:20.922px;font-family:Gotham-Medium, Gotham;font-weight:500;}</style></defs><path class="a" d="M0,0H206.93a100,100,0,0,1,100,100V306.93a0,0,0,0,1,0,0H100a100,100,0,0,1-100-100V0A0,0,0,0,1,0,0Z"/><g transform="translate(-985 -4384.073)"><path class="b" d="M1138.5,4452.728l-69.429,15.22v45.65c0,18.92,3.559,36.39,10.58,51.91a110.493,110.493,0,0,0,23.34,33.36c16.79,16.49,33.44,22.74,34.139,23l1.341.49,1.33-.49c.7-.26,17.35-6.51,34.139-23a110.516,110.516,0,0,0,23.341-33.36c7.02-15.52,10.58-32.99,10.58-51.91v-44.5Zm-4.279,151.55c-1.4-.65-2.77-1.35-4.13-2.08a88.733,88.733,0,0,1-15.33-10.5,89.713,89.713,0,0,1-6.821-6.4c-1.079-1.129-2.139-2.289-3.159-3.469-.52-.59-1.031-1.18-1.52-1.8l-.741-.91c-.239-.3-.48-.61-.719-.92a89.7,89.7,0,0,1-5.381-7.72c-.42-.66-.819-1.33-1.219-2.01s-.781-1.36-1.161-2.05c-.759-1.371-1.479-2.77-2.179-4.18-.171-.35-.341-.7-.5-1.06l-.5-1.07c-.321-.72-.62-1.44-.941-2.16s-.6-1.45-.889-2.18l-.44-1.1c-.14-.36-.27-.73-.4-1.1l-.4-1.11-.2-.55-.18-.56-.73-2.24-.67-2.26c-.11-.37-.21-.75-.31-1.13l-.31-1.13c-.09-.38-.2-.76-.29-1.14l-.26-1.151c-.171-.759-.361-1.519-.51-2.289s-.32-1.53-.46-2.3-.27-1.54-.4-2.31c-.48-3.09-.87-6.19-1.1-9.31l-.141-2.33c-.049-.78-.079-1.55-.1-2.33-.059-1.56-.049-3.11-.069-4.67.03-1.55.06-3.12.12-4.64s.109-3.06.17-4.59l.2-4.59.23-4.59c.159-3.06.33-6.12.54-9.18s.42-6.121.71-9.19c.28,3.069.5,6.13.71,9.19s.37,6.12.54,9.18l.219,4.59.2,4.59c.069,1.53.12,3.06.17,4.59s.14,3.04.19,4.55c.1,1.5.18,3.01.33,4.51.109,1.5.29,2.99.45,4.48.369,2.99.82,5.95,1.38,8.9s1.239,5.85,2.029,8.73l.3,1.08c.1.36.19.73.31,1.08l.65,2.14.7,2.13.181.53.19.52.39,1.05a100.787,100.787,0,0,0,17.92,30.81l.37.43.369.42.741.85c.24.28.5.56.75.84l.759.83c1.021,1.1,2.06,2.19,3.131,3.25q3.2,3.18,6.659,6.13t7.171,5.62q3.69,2.685,7.63,5.09C1137.03,4605.547,1135.62,4604.928,1134.22,4604.278Z"/></g><g class="c" transform="translate(-984.513 -662.762)"><g transform="translate(-2213.488 -3721.311)"><path class="a" d="M0,0H206.93a100,100,0,0,1,100,100V306.93a0,0,0,0,1,0,0H100a100,100,0,0,1-100-100V0A0,0,0,0,1,0,0Z" transform="translate(3198.488 4384.073)"/><path class="b" d="M3351.987,4452.728l-69.43,15.22v45.65c0,18.92,3.56,36.39,10.58,51.91a110.513,110.513,0,0,0,23.34,33.36c16.79,16.49,33.44,22.74,34.14,23l1.34.49,1.33-.49c.7-.26,17.35-6.51,34.14-23a110.513,110.513,0,0,0,23.34-33.36c7.02-15.52,10.58-32.99,10.58-51.91v-44.5Zm-4.28,151.55c-1.4-.65-2.77-1.35-4.13-2.08a88.726,88.726,0,0,1-15.33-10.5,89.653,89.653,0,0,1-6.82-6.4c-1.08-1.129-2.14-2.289-3.16-3.469-.52-.59-1.03-1.18-1.52-1.8l-.74-.91c-.24-.3-.48-.61-.72-.92a89.414,89.414,0,0,1-5.38-7.72c-.42-.66-.82-1.33-1.22-2.01s-.78-1.36-1.16-2.05c-.76-1.371-1.48-2.77-2.18-4.18-.17-.35-.34-.7-.5-1.06l-.5-1.07c-.32-.72-.62-1.44-.94-2.16s-.6-1.45-.89-2.18l-.44-1.1c-.14-.36-.27-.73-.4-1.1l-.4-1.11-.2-.55-.18-.56-.73-2.24-.67-2.26c-.11-.37-.21-.75-.31-1.13l-.31-1.13c-.09-.38-.2-.76-.29-1.14l-.26-1.151c-.17-.759-.36-1.519-.51-2.289s-.32-1.53-.46-2.3-.27-1.54-.4-2.31c-.48-3.09-.87-6.19-1.1-9.31l-.14-2.33c-.05-.78-.08-1.55-.1-2.33-.06-1.56-.05-3.11-.07-4.67.03-1.55.06-3.12.12-4.64s.11-3.06.17-4.59l.2-4.59.23-4.59c.16-3.06.33-6.12.54-9.18s.42-6.121.71-9.19c.28,3.069.5,6.13.71,9.19s.37,6.12.54,9.18l.22,4.59.2,4.59c.07,1.53.12,3.06.17,4.59s.14,3.04.19,4.55c.1,1.5.18,3.01.33,4.51.11,1.5.29,2.99.45,4.48.37,2.99.82,5.95,1.38,8.9s1.24,5.85,2.03,8.73l.3,1.08c.1.36.19.73.31,1.08l.65,2.14.7,2.13.18.53.19.52.39,1.05a100.807,100.807,0,0,0,17.92,30.81l.37.43.37.42.74.85c.24.28.5.56.75.84l.76.83c1.02,1.1,2.06,2.19,3.13,3.25q3.195,3.18,6.66,6.13t7.17,5.62q3.69,2.685,7.63,5.09C3350.517,4605.547,3349.107,4604.928,3347.707,4604.278Z"/></g><path class="d" d="M0,0H206.93a100,100,0,0,1,100,100V306.93a0,0,0,0,1,0,0H100a100,100,0,0,1-100-100V0A0,0,0,0,1,0,0Z" transform="translate(985 662.762)"/><g transform="translate(-2213.488 -3721.311)"><text class="e" transform="translate(3240.544 4470.336)"><tspan x="17.815" y="20">Tahweel has strict </tspan><tspan x="4.184" y="45.106">safety guidelines for </tspan><tspan x="1.684" y="70.212">the employees in the </tspan><tspan x="15.9" y="95.318">work environment</tspan></text></g></g></svg>