<svg xmlns="http://www.w3.org/2000/svg" width="1966" height="2583.371" viewBox="0 0 1966 2583.371"><defs><style>.a{opacity:0.16;}.b{fill:#50b6df;}</style></defs><g class="a" transform="translate(-4167.258 -74.797)"><path class="b" d="M4879.288,2650.958c.31.649.62,1.309.91,1.97q.975-.075,1.95-.181c.78-.069,1.57-.14,2.36-.23.33-.72.67-1.44,1-2.149-.79.08-1.57.16-2.36.229Zm992.47-700.441c.78-.079,1.57-.16,2.36-.23.15-.29.29-.579.41-.879.21-.42.4-.841.59-1.27.13-.27.26-.541.37-.811-.47-.6-.95-1.2-1.42-1.8-.32.69-.64,1.39-.96,2.079-.12.25-.23.511-.35.761C5872.428,1949.087,5872.088,1949.807,5871.758,1950.517Zm-992.47,700.441c.31.649.62,1.309.91,1.97q.975-.075,1.95-.181c.33-.719.66-1.44,1-2.15Zm993.82-703.351c-.12.25-.23.511-.35.761q.435-.062.87-.09ZM4290.828,312.547a1218.2,1218.2,0,0,0-123.57,60.76v2.341a1215.449,1215.449,0,0,1,124.37-61.21q9.045-3.825,18.12-7.49c.66-.27,1.32-.54,1.98-.8,144.35-58.061,297.07-87.49,454.28-87.49,164.53,0,324.13,32.23,474.38,95.78a1223.275,1223.275,0,0,1,479.67,364.55c.48.6.95,1.19,1.42,1.79a3.184,3.184,0,0,1,.23.289c.44.551.89,1.111,1.32,1.671q28.17,35.655,53.57,73.25a1218.648,1218.648,0,0,1,112.36,207.02c63.55,150.25,95.78,309.849,95.78,474.38s-32.23,324.129-95.78,474.379q-7.185,16.98-14.89,33.761c-.32.69-.64,1.39-.96,2.079-.12.25-.23.511-.35.761-.33.719-.67,1.439-1,2.149a1222.26,1222.26,0,0,1-631.37,609.82,1206.62,1206.62,0,0,1-354.88,90.031c-.79.08-1.57.16-2.36.229l-3.86.361c-.72.07-1.45.129-2.17.19q-55.125,4.965-111.11,4.97c-164.53,0-324.13-32.23-474.38-95.781a1215.227,1215.227,0,0,1-124.37-61.209v2.349a1215.657,1215.657,0,0,0,123.57,60.75c150.5,63.661,310.38,95.941,475.18,95.941q56.43,0,112.03-5.04c.72-.061,1.44-.131,2.16-.2q.975-.075,1.95-.181c.78-.069,1.57-.14,2.36-.23a1214.621,1214.621,0,0,0,564.05-202.839,1224.368,1224.368,0,0,0,425.56-499.391c.15-.29.29-.579.41-.879.21-.42.4-.841.59-1.27.13-.27.26-.541.37-.811q7.965-17.265,15.36-34.76c63.66-150.5,95.94-310.379,95.94-475.179s-32.28-324.68-95.94-475.18A1220.3,1220.3,0,0,0,5778.3,754.837q-25.245-37.348-53.29-72.9c-.43-.56-.88-1.121-1.32-1.67-.41-.53-.83-1.06-1.25-1.58-.47-.6-.94-1.19-1.42-1.78a1223.507,1223.507,0,0,0-479.83-364.361c-150.5-63.659-310.38-95.94-475.18-95.94-157.68,0-310.85,29.551-455.61,87.86-.66.271-1.32.531-1.98.8Q4299.6,308.838,4290.828,312.547Zm1581.93,1635.821q.435-.062.87-.09l-.52-.671C5872.988,1947.857,5872.878,1948.118,5872.758,1948.368Zm-993.47,702.59c.31.649.62,1.309.91,1.97q.975-.075,1.95-.181c.33-.719.66-1.44,1-2.15Zm992.47-700.441c.78-.079,1.57-.16,2.36-.23.15-.29.29-.579.41-.879.21-.42.4-.841.59-1.27.13-.27.26-.541.37-.811-.47-.6-.95-1.2-1.42-1.8-.32.69-.64,1.39-.96,2.079-.12.25-.23.511-.35.761C5872.428,1949.087,5872.088,1949.807,5871.758,1950.517Zm-992.47,700.441c.31.649.62,1.309.91,1.97q.975-.075,1.95-.181c.78-.069,1.57-.14,2.36-.23.33-.72.67-1.44,1-2.149-.79.08-1.57.16-2.36.229Z"/><path class="b" d="M5608.768,1188.928c0,164.8,32.28,324.669,95.93,475.179a1221.335,1221.335,0,0,0,112.56,207.37q26.4,39.06,55.85,76.13l.52.671c.3.38.6.75.9,1.13l.63.78a1225.737,1225.737,0,0,0,258.1,241.59V2189.3a1224.252,1224.252,0,0,1-255.65-239.329c-.52-.641-1.03-1.28-1.54-1.921-.19-.24-.38-.48-.58-.72-.47-.6-.95-1.2-1.42-1.8q-29.01-36.57-55.11-75.2a1217.946,1217.946,0,0,1-112.37-207.02c-63.55-150.25-95.77-309.849-95.77-474.379s32.22-324.141,95.77-474.391q6.51-15.375,13.45-30.6c.4-.891.81-1.79,1.22-2.69.08-.151.15-.31.22-.47.32-.691.64-1.39.96-2.09a1224.142,1224.142,0,0,1,410.82-490.131v-2.5a1224.561,1224.561,0,0,0-412.24,490.851c-.32.689-.64,1.379-.96,2.08-.52,1.109-1.03,2.229-1.54,3.349-.41.9-.82,1.791-1.22,2.691q-6.5,14.278-12.6,28.72C5641.048,864.248,5608.768,1024.118,5608.768,1188.928Zm265.76,760.48.63.78c.81-.081,1.63-.151,2.45-.22-.52-.641-1.03-1.28-1.54-1.921-.19-.24-.38-.48-.58-.72-.11.27-.24.541-.37.811C5874.928,1948.567,5874.738,1948.988,5874.528,1949.408Z"/><path class="b" d="M4167.258,74.8v4.74a1221.386,1221.386,0,0,0,87.87,152.831q25.23,37.35,53.29,72.9c.44.559.88,1.12,1.33,1.68a1228.908,1228.908,0,0,0,94.45,106.089,1229.459,1229.459,0,0,0,180.67,149.07,1220.294,1220.294,0,0,0,207.37,112.551c150.5,63.659,310.37,95.939,475.18,95.939,155.6,0,306.81-28.78,449.88-85.569.91-.36,1.83-.731,2.74-1.09,1-.4,1.99-.8,2.99-1.2.66-.271,1.32-.53,1.98-.8q8.821-3.571,17.59-7.28a1220.665,1220.665,0,0,0,207.37-112.551,1230,1230,0,0,0,180.67-149.07c.88-.879,1.75-1.759,2.62-2.639v-2.91q-2.024,2.053-4.07,4.1a1227.818,1227.818,0,0,1-180.37,148.821,1218.779,1218.779,0,0,1-207.02,112.37q-9.03,3.824-18.11,7.49c-.66.269-1.32.529-1.98.8l-.45.181c-.91.359-1.82.729-2.74,1.089-143.42,57.22-295.04,86.21-451.1,86.21-164.53,0-324.14-32.22-474.39-95.769a1219.077,1219.077,0,0,1-207.01-112.37,1227.308,1227.308,0,0,1-180.37-148.821,1226.953,1226.953,0,0,1-93.92-105.439c-.45-.561-.89-1.12-1.33-1.681q-28.17-35.654-53.57-73.25A1217.983,1217.983,0,0,1,4167.258,74.8Z"/></g></svg>