<svg xmlns="http://www.w3.org/2000/svg" width="1966" height="824.07" viewBox="0 0 1966 824.07"><defs><style>.a{opacity:0.16;}.b{fill:#50b6df;}</style></defs><g class="a" transform="translate(-6169.905 -711.356)"><path class="b" d="M7876.715,1005.476c-.32.69-.64,1.39-.96,2.08-.12.25-.23.51-.35.76-.33.72-.67,1.44-1,2.15.78-.08,1.57-.16,2.36-.23.15-.29.29-.58.41-.88.21-.42.4-.84.59-1.27.13-.27.26-.54.37-.81C7877.665,1006.676,7877.185,1006.076,7876.715,1005.476Zm-.96,2.08c-.12.25-.23.51-.35.76q.435-.06.87-.09C7876.1,1008,7875.925,1007.776,7875.755,1007.556Zm92.97-296.2a1207.035,1207.035,0,0,1-77.12,260.36q-7.185,16.98-14.89,33.76c-.32.69-.64,1.39-.96,2.08-.12.25-.23.51-.35.76-.33.72-.67,1.44-1,2.15a1219.624,1219.624,0,0,1-95.16,168.27,1225.533,1225.533,0,0,1-329.19,329.19q-21,14.19-42.61,27.5h3.91q20.175-12.51,39.85-25.8a1227.665,1227.665,0,0,0,329.74-329.74,1219.908,1219.908,0,0,0,95.82-169.65c.15-.29.29-.58.41-.88.21-.42.4-.84.59-1.27.13-.27.26-.54.37-.81q7.965-17.265,15.36-34.76a1209.324,1209.324,0,0,0,77.32-261.16Zm-92.97,296.2c-.12.25-.23.51-.35.76q.435-.06.87-.09C7876.1,1008,7875.925,1007.776,7875.755,1007.556Zm.96-2.08c-.32.69-.64,1.39-.96,2.08-.12.25-.23.51-.35.76-.33.72-.67,1.44-1,2.15.78-.08,1.57-.16,2.36-.23.15-.29.29-.58.41-.88.21-.42.4-.84.59-1.27.13-.27.26-.54.37-.81C7877.665,1006.676,7877.185,1006.076,7876.715,1005.476Z"/><path class="b" d="M7877.175,1009.356c-.12.3-.26.59-.41.88.34-.03.69-.07,1.04-.1Zm116.73-6.69q-58.035,0-115.19,5.33c-.31.02-.63.05-.95.09-.49.04-.99.09-1.49.14q-.435.03-.87.09a1214.6,1214.6,0,0,0-564.05,202.84,1227.63,1227.63,0,0,0-326.02,324.27h2.49a1222.109,1222.109,0,0,1,531.7-434.93,1206.191,1206.191,0,0,1,354.88-90.03c.78-.08,1.57-.16,2.36-.23.34-.03.69-.07,1.04-.1.81-.08,1.63-.15,2.45-.22q56.37-5.19,113.65-5.2a1234.944,1234.944,0,0,1,142,8.14v-2.07A1237.329,1237.329,0,0,0,7993.9,1002.666Z"/><path class="b" d="M6636.875,1360.226a1222.5,1222.5,0,0,0-388.04-261.62q-39.06-16.515-78.93-30.22v2.17q39.45,13.59,78.13,29.94a1223.724,1223.724,0,0,1,531.7,434.93h2.49A1229.77,1229.77,0,0,0,6636.875,1360.226Z"/><path class="b" d="M7878.715,1008c-.19-.24-.38-.48-.58-.72-.11.27-.24.54-.37.81-.19.43-.38.85-.59,1.27l.63.78c.81-.08,1.63-.15,2.45-.22C7879.735,1009.276,7879.225,1008.636,7878.715,1008Zm91.7,102.65a1225.551,1225.551,0,0,1-90.16-100.73c-.52-.64-1.03-1.28-1.54-1.92-.19-.24-.38-.48-.58-.72-.47-.6-.95-1.2-1.42-1.8q-29.01-36.57-55.11-75.2a1218.018,1218.018,0,0,1-112.37-207.02q-2.5-5.94-4.96-11.9h-2.22q2.61,6.36,5.29,12.7a1221.409,1221.409,0,0,0,112.56,207.37q26.4,39.06,55.85,76.13c.17.22.34.44.52.67.3.38.6.75.9,1.13l.63.78a1225.733,1225.733,0,0,0,258.1,241.59v-2.48A1227.772,1227.772,0,0,1,7970.415,1110.646Z"/></g></svg>