<svg xmlns="http://www.w3.org/2000/svg" width="1966" height="3344.226" viewBox="0 0 1966 3344.226"><defs><style>.a{opacity:0.16;}.b{fill:#50b6df;}</style></defs><g class="a" transform="translate(-2170.989 -74.797)"><path class="b" d="M2883.019,2650.958c.309.649.619,1.309.909,1.97q.975-.075,1.951-.181c.779-.069,1.569-.14,2.36-.23.329-.72.669-1.44,1-2.149-.791.08-1.571.16-2.36.229Zm992.47-700.441c.78-.079,1.57-.16,2.359-.23.151-.29.29-.579.411-.879.209-.42.4-.841.589-1.27.13-.27.261-.541.37-.811-.469-.6-.949-1.2-1.419-1.8-.321.69-.641,1.39-.96,2.079-.121.25-.23.511-.35.761C3876.158,1949.087,3875.819,1949.807,3875.489,1950.517Zm-992.47,700.441c.309.649.619,1.309.909,1.97q.975-.075,1.951-.181c.329-.719.66-1.44,1-2.15Zm993.82-703.351c-.121.25-.23.511-.35.761q.435-.062.87-.09C3877.178,1948.047,3877.009,1947.827,3876.839,1947.607ZM2294.559,312.547a1218.173,1218.173,0,0,0-123.57,60.76v2.341a1215.446,1215.446,0,0,1,124.37-61.21q9.044-3.825,18.119-7.49c.66-.27,1.321-.54,1.98-.8,144.351-58.061,297.071-87.49,454.281-87.49,164.53,0,324.13,32.23,474.38,95.78a1223.266,1223.266,0,0,1,479.67,364.55c.48.6.95,1.19,1.419,1.79a3.061,3.061,0,0,1,.23.289c.441.551.89,1.111,1.321,1.671q28.17,35.655,53.569,73.25a1218.546,1218.546,0,0,1,112.36,207.02c63.551,150.25,95.78,309.849,95.78,474.38s-32.229,324.129-95.78,474.379q-7.185,16.98-14.889,33.761c-.321.69-.641,1.39-.96,2.079-.121.25-.23.511-.35.761-.331.719-.67,1.439-1,2.149a1222.272,1222.272,0,0,1-631.37,609.82,1206.625,1206.625,0,0,1-354.88,90.031c-.791.08-1.571.16-2.36.229l-3.86.361c-.72.07-1.451.129-2.171.19q-55.125,4.965-111.109,4.97c-164.531,0-324.13-32.23-474.38-95.781a1215.223,1215.223,0,0,1-124.37-61.209v2.349a1215.628,1215.628,0,0,0,123.57,60.75c150.5,63.661,310.379,95.941,475.18,95.941q56.43,0,112.03-5.04c.72-.061,1.439-.131,2.159-.2q.975-.075,1.951-.181c.779-.069,1.569-.14,2.36-.23a1214.634,1214.634,0,0,0,564.05-202.839,1224.336,1224.336,0,0,0,425.559-499.391c.151-.29.29-.579.411-.879.209-.42.4-.841.589-1.27.13-.27.261-.541.37-.811q7.967-17.265,15.36-34.76c63.661-150.5,95.941-310.379,95.941-475.179s-32.28-324.68-95.941-475.18a1220.3,1220.3,0,0,0-112.549-207.371q-25.247-37.348-53.29-72.9c-.43-.56-.88-1.121-1.321-1.67-.409-.53-.829-1.06-1.25-1.58-.47-.6-.94-1.19-1.419-1.78a1223.5,1223.5,0,0,0-479.831-364.361c-150.5-63.659-310.379-95.94-475.179-95.94-157.68,0-310.851,29.551-455.61,87.86-.661.271-1.32.531-1.981.8Q2303.33,308.838,2294.559,312.547Zm1581.93,1635.821q.435-.062.87-.09c-.181-.231-.35-.451-.52-.671C3876.718,1947.857,3876.609,1948.118,3876.489,1948.368Zm-993.47,702.59c.309.649.619,1.309.909,1.97q.975-.075,1.951-.181c.329-.719.66-1.44,1-2.15Zm992.47-700.441c.78-.079,1.57-.16,2.359-.23.151-.29.29-.579.411-.879.209-.42.4-.841.589-1.27.13-.27.261-.541.37-.811-.469-.6-.949-1.2-1.419-1.8-.321.69-.641,1.39-.96,2.079-.121.25-.23.511-.35.761C3876.158,1949.087,3875.819,1949.807,3875.489,1950.517Zm-992.47,700.441c.309.649.619,1.309.909,1.97q.975-.075,1.951-.181c.779-.069,1.569-.14,2.36-.23.329-.72.669-1.44,1-2.149-.791.08-1.571.16-2.36.229Z"/><path class="b" d="M2803,3418.941a1222.512,1222.512,0,0,1-26.736-255.444c0-164.529,32.23-324.129,95.78-474.39q6.208-14.685,12.82-29.219c.38-.831.75-1.65,1.13-2.47.739-1.64,1.5-3.27,2.25-4.9.329-.72.669-1.44,1-2.149a1222.278,1222.278,0,0,1,631.37-609.821,1206.171,1206.171,0,0,1,354.88-90.03c.78-.079,1.57-.16,2.359-.23.34-.029.691-.069,1.04-.1.81-.081,1.631-.151,2.451-.22q56.368-5.19,113.65-5.2a1234.983,1234.983,0,0,1,142,8.141v-2.071a1237.565,1237.565,0,0,0-142-8.119q-58.035,0-115.19,5.329c-.31.02-.631.05-.951.091-.489.04-.989.089-1.489.14q-.435.029-.87.09a1214.615,1214.615,0,0,0-564.051,202.84A1224.361,1224.361,0,0,0,2886.879,2650.6c-.34.71-.671,1.431-1,2.15s-.681,1.461-1.02,2.2c-.37.819-.75,1.639-1.12,2.47q-7.02,15.36-13.591,30.9c-63.659,150.5-95.94,310.37-95.94,475.18a1224.687,1224.687,0,0,0,26.706,255.526M3877.848,1950.287c.34-.029.691-.069,1.04-.1l-.629-.78C3878.138,1949.708,3878,1950,3877.848,1950.287Zm-992.989,704.661c.39.819.77,1.639,1.13,2.47.739-1.64,1.5-3.27,2.25-4.9-.791.09-1.581.161-2.36.23C2885.539,2653.477,2885.2,2654.208,2884.859,2654.948Z"/><path class="b" d="M2880.848,2651.148c.31.659.62,1.32.921,1.98q.988,2.143,1.97,4.29c.38.82.75,1.639,1.12,2.47.38-.831.75-1.65,1.13-2.47-.36-.831-.74-1.651-1.13-2.47-.3-.681-.61-1.351-.931-2.02-.29-.661-.6-1.321-.909-1.97C2882.3,2651.028,2881.568,2651.087,2880.848,2651.148Zm0,0c.31.659.62,1.32.921,1.98q.988,2.143,1.97,4.29c.37-.831.75-1.651,1.12-2.47-.3-.681-.61-1.351-.931-2.02-.29-.661-.6-1.321-.909-1.97C2882.3,2651.028,2881.568,2651.087,2880.848,2651.148Zm88.481,765.44a1224.939,1224.939,0,0,0,26.19-253.091c0-164.81-32.28-324.68-95.941-475.18q-6.57-15.523-13.589-30.9c-.36-.831-.74-1.651-1.13-2.47-.3-.681-.61-1.351-.931-2.02-.29-.661-.6-1.321-.909-1.97a1224.276,1224.276,0,0,0-633.1-612.3q-39.059-16.515-78.929-30.22v2.169q39.449,13.591,78.13,29.94a1222.39,1222.39,0,0,1,631.729,610.6c.31.659.62,1.32.921,1.98q.988,2.143,1.97,4.29c.38.82.75,1.639,1.12,2.47q6.615,14.533,12.829,29.219c63.551,150.261,95.78,309.861,95.78,474.39a1222.745,1222.745,0,0,1-26.271,253.255m-86.349-765.6c.31.659.62,1.32.921,1.98q.988,2.143,1.97,4.29c.37-.831.75-1.651,1.12-2.47-.3-.681-.61-1.351-.931-2.02-.29-.661-.6-1.321-.909-1.97C2882.3,2651.028,2881.568,2651.087,2880.848,2651.148Zm0,0c.31.659.62,1.32.921,1.98q.988,2.143,1.97,4.29c.38.82.75,1.639,1.12,2.47.38-.831.75-1.65,1.13-2.47-.36-.831-.74-1.651-1.13-2.47-.3-.681-.61-1.351-.931-2.02-.29-.661-.6-1.321-.909-1.97C2882.3,2651.028,2881.568,2651.087,2880.848,2651.148Z"/><path class="b" d="M3612.5,1188.928c0,164.8,32.28,324.669,95.929,475.179a1221.36,1221.36,0,0,0,112.561,207.37q26.4,39.06,55.85,76.13c.17.22.339.44.52.671.3.38.6.75.9,1.13l.629.78a1225.813,1225.813,0,0,0,258.1,241.59V2189.3a1224.24,1224.24,0,0,1-255.65-239.329c-.52-.641-1.03-1.28-1.54-1.921-.19-.24-.381-.48-.581-.72-.469-.6-.949-1.2-1.419-1.8q-29.012-36.57-55.111-75.2a1217.922,1217.922,0,0,1-112.369-207.02c-63.55-150.25-95.77-309.849-95.77-474.379s32.22-324.141,95.77-474.391q6.508-15.375,13.45-30.6c.4-.891.809-1.79,1.22-2.69.08-.151.149-.31.219-.47.321-.691.64-1.39.96-2.09a1224.151,1224.151,0,0,1,410.821-490.131v-2.5a1224.568,1224.568,0,0,0-412.24,490.851c-.321.689-.64,1.379-.96,2.08-.52,1.109-1.03,2.229-1.54,3.349-.41.9-.821,1.791-1.22,2.691q-6.5,14.278-12.6,28.72C3644.779,864.248,3612.5,1024.118,3612.5,1188.928Zm265.76,760.48.629.78c.81-.081,1.631-.151,2.451-.22-.52-.641-1.03-1.28-1.54-1.921-.19-.24-.381-.48-.581-.72-.109.27-.24.541-.37.811C3878.658,1948.567,3878.468,1948.988,3878.259,1949.408Z"/><path class="b" d="M2170.989,74.8v4.74a1221.111,1221.111,0,0,0,87.87,152.831q25.229,37.35,53.289,72.9c.44.559.881,1.12,1.33,1.68a1228.9,1228.9,0,0,0,94.45,106.089,1229.485,1229.485,0,0,0,180.67,149.07,1220.372,1220.372,0,0,0,207.37,112.551c150.5,63.659,310.37,95.939,475.18,95.939,155.6,0,306.81-28.78,449.881-85.569.909-.36,1.83-.731,2.74-1.09,1-.4,1.99-.8,2.99-1.2.659-.271,1.319-.53,1.98-.8q8.818-3.571,17.589-7.28A1220.679,1220.679,0,0,0,3953.7,562.107a1229.959,1229.959,0,0,0,180.67-149.07c.881-.879,1.75-1.759,2.621-2.639v-2.91q-2.026,2.053-4.071,4.1a1227.834,1227.834,0,0,1-180.369,148.821,1218.835,1218.835,0,0,1-207.02,112.37q-9.03,3.824-18.111,7.49c-.659.269-1.32.529-1.98.8l-.449.181c-.911.359-1.821.729-2.74,1.089-143.421,57.22-295.041,86.21-451.1,86.21-164.529,0-324.139-32.22-474.389-95.769a1219.042,1219.042,0,0,1-207.01-112.37,1227.27,1227.27,0,0,1-180.37-148.821,1226.923,1226.923,0,0,1-93.921-105.439c-.449-.561-.89-1.12-1.329-1.681q-28.172-35.654-53.57-73.25A1217.692,1217.692,0,0,1,2170.989,74.8Z"/></g></svg>