<svg id="Layer_1" data-name="Layer 1" xmlns="http://www.w3.org/2000/svg" viewBox="0 0 286.28 91.27"><defs><style>.cls-1{fill:#005f83;}.cls-2{fill:#50b6df;}</style></defs><title>Tahweel film</title><path class="cls-1" d="M119,28.31H103.49a1.26,1.26,0,1,0,0,2.53h6.18a.25.25,0,0,1,.25.25V50.14a1.27,1.27,0,0,0,1.26,1.26h.13a1.27,1.27,0,0,0,1.26-1.26V31.09a.25.25,0,0,1,.25-.25H119a1.26,1.26,0,0,0,0-2.53" transform="translate(-0.36 -0.37)"/><path class="cls-1" d="M139.85,42.61a.24.24,0,0,1-.21.11h-9.29a.25.25,0,0,1-.23-.35l4.66-10.19A.24.24,0,0,1,135,32h0a.24.24,0,0,1,.23.15l4.63,10.19a.24.24,0,0,1,0,.24M136.5,28.88a1.27,1.27,0,0,0-1.15-.73h-.61a1.27,1.27,0,0,0-1.15.73L124,49.61a1.26,1.26,0,0,0,.08,1.21,1.29,1.29,0,0,0,2.25-.16l2.41-5.3.23-.15H141l.23.15,2.4,5.3a1.27,1.27,0,0,0,1.15.74h.13a1.26,1.26,0,0,0,1.15-1.8Z" transform="translate(-0.36 -0.37)"/><path class="cls-1" d="M171.39,28.31h-.13A1.27,1.27,0,0,0,170,29.57v8.71a.25.25,0,0,1-.25.25H157.13a.25.25,0,0,1-.25-.25V29.57a1.27,1.27,0,0,0-1.26-1.26h-.13a1.27,1.27,0,0,0-1.26,1.26V50.14a1.27,1.27,0,0,0,1.26,1.26h.13a1.27,1.27,0,0,0,1.26-1.26V41.31a.25.25,0,0,1,.25-.25h12.62a.25.25,0,0,1,.25.25v8.83a1.27,1.27,0,0,0,1.26,1.26h.13a1.27,1.27,0,0,0,1.26-1.26V29.57a1.27,1.27,0,0,0-1.26-1.26" transform="translate(-0.36 -0.37)"/><path class="cls-1" d="M211.48,28.31h-.09a1.27,1.27,0,0,0-1.19.84l-6,17.05a.24.24,0,0,1-.23.17.23.23,0,0,1-.24-.17l-5.6-17.08a1.26,1.26,0,0,0-1.2-.87h-.16a1.26,1.26,0,0,0-1.2.87l-5.6,17.08a.24.24,0,0,1-.23.17.23.23,0,0,1-.24-.17l-6-17.05a1.27,1.27,0,0,0-1.19-.84H182A1.26,1.26,0,0,0,180.83,30l7.47,20.73a1.27,1.27,0,0,0,1.19.84h.25a1.26,1.26,0,0,0,1.2-.86l5.58-16.54a.25.25,0,0,1,.47,0l5.58,16.54a1.26,1.26,0,0,0,1.2.86H204a1.27,1.27,0,0,0,1.19-.84L212.67,30a1.26,1.26,0,0,0-1.19-1.69" transform="translate(-0.36 -0.37)"/><path class="cls-1" d="M236.47,48.88H223.76a.25.25,0,0,1-.25-.25V41.28a.25.25,0,0,1,.25-.25H234.9a1.26,1.26,0,1,0,0-2.53H223.76a.25.25,0,0,1-.25-.25V31.09a.25.25,0,0,1,.25-.25h12.56a1.26,1.26,0,1,0,0-2.53h-14.2a1.27,1.27,0,0,0-1.26,1.26V50.14a1.27,1.27,0,0,0,1.26,1.26h14.36a1.26,1.26,0,1,0,0-2.53" transform="translate(-0.36 -0.37)"/><path class="cls-1" d="M261.55,48.88H248.84a.25.25,0,0,1-.25-.25V41.28a.25.25,0,0,1,.25-.25H260a1.26,1.26,0,0,0,0-2.53H248.84a.25.25,0,0,1-.25-.25V31.09a.25.25,0,0,1,.25-.25H261.4a1.26,1.26,0,0,0,0-2.53H247.2a1.27,1.27,0,0,0-1.26,1.26V50.14a1.27,1.27,0,0,0,1.26,1.26h14.36a1.26,1.26,0,0,0,0-2.53" transform="translate(-0.36 -0.37)"/><path class="cls-1" d="M285.37,48.88H273.92a.25.25,0,0,1-.25-.25V29.57a1.27,1.27,0,0,0-1.26-1.26h-.13A1.27,1.27,0,0,0,271,29.57V50.14a1.27,1.27,0,0,0,1.26,1.26h13.09a1.26,1.26,0,1,0,0-2.53" transform="translate(-0.36 -0.37)"/><path class="cls-2" d="M178.07,59.36H167.78a1.07,1.07,0,0,0-1.07,1.07V75.51a1.07,1.07,0,0,0,1.07,1.07h.09a1.07,1.07,0,0,0,1.07-1.07V69.29l0,0h8a1.07,1.07,0,0,0,0-2.14h-8l0,0V61.55l0,0h9.09a1.07,1.07,0,0,0,0-2.14" transform="translate(-0.36 -0.37)"/><path class="cls-2" d="M184.32,59.36h-.09a1.07,1.07,0,0,0-1.07,1.07V75.51a1.07,1.07,0,0,0,1.07,1.07h.09a1.07,1.07,0,0,0,1.07-1.07V60.44a1.07,1.07,0,0,0-1.07-1.07" transform="translate(-0.36 -0.37)"/><path class="cls-2" d="M201.11,74.44h-8.4l0,0v-14a1.07,1.07,0,0,0-1.07-1.07h-.09a1.07,1.07,0,0,0-1.07,1.07V75.51a1.07,1.07,0,0,0,1.07,1.07h9.6a1.07,1.07,0,0,0,0-2.14" transform="translate(-0.36 -0.37)"/><path class="cls-2" d="M221.09,59.36h-.28a1.07,1.07,0,0,0-.89.47L214,68.49H214l-5.87-8.66a1.07,1.07,0,0,0-.89-.47h-.28a1.07,1.07,0,0,0-1.07,1.07V75.51a1.1,1.1,0,0,0,2.19,0V63.79l.07,0,5.55,8.07h.64l5.55-8.07-.43-.29.5.31V75.51A1.07,1.07,0,0,0,221,76.59h.09a1.07,1.07,0,0,0,1.07-1.07V60.44a1.07,1.07,0,0,0-1.07-1.07" transform="translate(-0.36 -0.37)"/><path class="cls-2" d="M8.39,71.32a1.73,1.73,0,0,1-1.48-.84A46.36,46.36,0,0,1,71.07,7.27a1.73,1.73,0,1,1-1.82,2.94A42.91,42.91,0,0,0,9.87,68.71a1.73,1.73,0,0,1-1.48,2.62" transform="translate(-0.36 -0.37)"/><path class="cls-2" d="M46.72,91.63A45.17,45.17,0,0,1,8.15,69.74a.29.29,0,1,1,.49-.3A44.34,44.34,0,0,0,91.05,46.72,44.1,44.1,0,0,0,70,9a.29.29,0,1,1,.3-.49A44.92,44.92,0,0,1,46.72,91.63" transform="translate(-0.36 -0.37)"/><path class="cls-2" d="M46.73,82.81A36.18,36.18,0,0,1,30.53,79a1.73,1.73,0,0,1,1.55-3.09A32.64,32.64,0,1,0,55.19,15.2a1.73,1.73,0,1,1,.89-3.34,36.09,36.09,0,0,1-9.35,70.95" transform="translate(-0.36 -0.37)"/><path class="cls-2" d="M31.31,77.73l-.13,0A34.66,34.66,0,0,1,55.71,13.25a.29.29,0,1,1-.15.56A34.08,34.08,0,0,0,31.44,77.19a.29.29,0,0,1-.13.55" transform="translate(-0.36 -0.37)"/><path class="cls-1" d="M59.61,28.15H32.81a3.18,3.18,0,0,0,0,6.36H43V65.42a3.18,3.18,0,1,0,6.36,0V34.51H59.61a3.18,3.18,0,0,0,0-6.36" transform="translate(-0.36 -0.37)"/></svg>