<?xml version="1.0" encoding="utf-8"?>
<!-- Generator: Adobe Illustrator 21.0.0, SVG Export Plug-In . SVG Version: 6.00 Build 0)  -->
<svg version="1.1" id="Layer_1" xmlns="http://www.w3.org/2000/svg" xmlns:xlink="http://www.w3.org/1999/xlink" x="0px" y="0px"
	 viewBox="0 0 277 96" style="enable-background:new 0 0 277 96;" xml:space="preserve">
<style type="text/css">
	.st0{display:none;}
	.st1{display:inline;fill:#005F83;}
	.st2{display:inline;fill:#50B6DF;}
	.st3{clip-path:url(#SVGID_2_);fill:url(#SVGID_3_);}
	.st4{filter:url(#Adobe_OpacityMaskFilter);}
	.st5{clip-path:url(#SVGID_5_);}
	.st6{enable-background:new    ;}
	.st7{clip-path:url(#SVGID_5_);fill:url(#SVGID_7_);}
	.st8{clip-path:url(#SVGID_5_);mask:url(#SVGID_6_);}
	.st9{clip-path:url(#SVGID_9_);}
	.st10{clip-path:url(#SVGID_11_);fill:url(#SVGID_12_);}
	.st11{fill:#008D45;}
	.st12{fill:#FFFFFF;}
	.st13{fill:#58595B;}
</style>
<g class="st0">
	<path class="st1" d="M102-51.7H86.5c-0.7,0-1.3,0.6-1.3,1.3c0,0.7,0.6,1.3,1.3,1.3h6.2c0.1,0,0.2,0.1,0.2,0.3v19.1
		c0,0.7,0.6,1.3,1.3,1.3h0.1c0.7,0,1.3-0.6,1.3-1.3v-19.1c0-0.1,0.1-0.3,0.2-0.3h6.2c0.7,0,1.3-0.6,1.3-1.3
		C103.3-51.1,102.7-51.7,102-51.7"/>
	<path class="st1" d="M122.9-37.4c0,0-0.1,0.1-0.2,0.1h-9.3c-0.1,0-0.2-0.1-0.2-0.1c0,0-0.1-0.1,0-0.2l4.7-10.2
		C117.8-48,118-48,118-48h0c0,0,0.2,0,0.2,0.1l4.6,10.2C122.9-37.5,122.9-37.4,122.9-37.4 M119.5-51.1c-0.2-0.4-0.7-0.7-1.1-0.7
		h-0.6c-0.5,0-0.9,0.3-1.1,0.7L107-30.4c-0.2,0.4-0.2,0.8,0.1,1.2c0.2,0.4,0.6,0.6,1.1,0.6c0.5,0,0.9-0.3,1.2-0.7l2.4-5.3l0.2-0.1
		H124l0.2,0.1l2.4,5.3c0.2,0.5,0.7,0.7,1.2,0.7h0.1c0.4,0,0.8-0.2,1.1-0.6c0.2-0.4,0.3-0.8,0.1-1.2L119.5-51.1z"/>
	<path class="st1" d="M154.4-51.7h-0.1c-0.7,0-1.3,0.6-1.3,1.3v8.7c0,0.1-0.1,0.2-0.3,0.2h-12.6c-0.1,0-0.3-0.1-0.3-0.2v-8.7
		c0-0.7-0.6-1.3-1.3-1.3h-0.1c-0.7,0-1.3,0.6-1.3,1.3v20.6c0,0.7,0.6,1.3,1.3,1.3h0.1c0.7,0,1.3-0.6,1.3-1.3v-8.8
		c0-0.1,0.1-0.2,0.3-0.2h12.6c0.1,0,0.3,0.1,0.3,0.2v8.8c0,0.7,0.6,1.3,1.3,1.3h0.1c0.7,0,1.3-0.6,1.3-1.3v-20.6
		C155.7-51.1,155.1-51.7,154.4-51.7"/>
	<path class="st1" d="M194.5-51.7L194.5-51.7c-0.6,0-1.1,0.3-1.3,0.8l-6,17.1c-0.1,0.1-0.2,0.2-0.2,0.2c-0.1,0-0.2,0-0.2-0.2
		l-5.6-17.1c-0.2-0.5-0.7-0.9-1.2-0.9h-0.2c-0.5,0-1,0.3-1.2,0.9l-5.6,17.1c-0.1,0.2-0.2,0.2-0.2,0.2c-0.1,0-0.2,0-0.2-0.2l-6-17.1
		c-0.2-0.5-0.7-0.8-1.2-0.8H165c-0.4,0-0.8,0.2-1,0.5c-0.2,0.3-0.3,0.8-0.2,1.2l7.5,20.7c0.2,0.5,0.7,0.8,1.2,0.8h0.2
		c0.5,0,1-0.3,1.2-0.9l5.6-16.5c0.1-0.2,0.2-0.2,0.2-0.2c0.1,0,0.2,0,0.2,0.2l5.6,16.5c0.2,0.5,0.7,0.9,1.2,0.9h0.2
		c0.5,0,1-0.3,1.2-0.8l7.5-20.7c0.1-0.4,0.1-0.8-0.2-1.2C195.3-51.5,194.9-51.7,194.5-51.7"/>
	<path class="st1" d="M219.5-31.1h-12.7c-0.1,0-0.2-0.1-0.2-0.2v-7.4c0-0.1,0.1-0.2,0.2-0.2h11.1c0.7,0,1.3-0.6,1.3-1.3
		c0-0.7-0.6-1.3-1.3-1.3h-11.1c-0.1,0-0.2-0.1-0.2-0.2v-7.2c0-0.1,0.1-0.2,0.2-0.2h12.6c0.7,0,1.3-0.6,1.3-1.3s-0.6-1.3-1.3-1.3
		h-14.2c-0.7,0-1.3,0.6-1.3,1.3v20.6c0,0.7,0.6,1.3,1.3,1.3h14.4c0.7,0,1.3-0.6,1.3-1.3C220.7-30.6,220.2-31.1,219.5-31.1"/>
	<path class="st1" d="M244.6-31.1h-12.7c-0.1,0-0.3-0.1-0.3-0.2v-7.4c0-0.1,0.1-0.2,0.3-0.2H243c0.7,0,1.3-0.6,1.3-1.3
		c0-0.7-0.6-1.3-1.3-1.3h-11.1c-0.1,0-0.3-0.1-0.3-0.2v-7.2c0-0.1,0.1-0.2,0.3-0.2h12.6c0.7,0,1.3-0.6,1.3-1.3s-0.6-1.3-1.3-1.3
		h-14.2c-0.7,0-1.3,0.6-1.3,1.3v20.6c0,0.7,0.6,1.3,1.3,1.3h14.4c0.7,0,1.3-0.6,1.3-1.3C245.8-30.6,245.3-31.1,244.6-31.1"/>
	<path class="st1" d="M268.4-31.1h-11.5c-0.1,0-0.3-0.1-0.3-0.2v-19.1c0-0.7-0.6-1.3-1.3-1.3h-0.1c-0.7,0-1.3,0.6-1.3,1.3v20.6
		c0,0.7,0.6,1.3,1.3,1.3h13.1c0.7,0,1.3-0.6,1.3-1.3C269.6-30.6,269.1-31.1,268.4-31.1"/>
	<path class="st2" d="M161.1-20.6h-10.3c-0.6,0-1.1,0.5-1.1,1.1v15.1c0,0.6,0.5,1.1,1.1,1.1h0.1c0.6,0,1.1-0.5,1.1-1.1v-6.2l0,0h8
		c0.6,0,1.1-0.5,1.1-1.1c0-0.6-0.5-1.1-1.1-1.1h-8l0,0v-5.5l0,0h9.1c0.6,0,1.1-0.5,1.1-1.1C162.1-20.2,161.7-20.6,161.1-20.6"/>
	<path class="st2" d="M167.3-20.6L167.3-20.6c-0.7,0-1.2,0.5-1.2,1.1v15.1c0,0.6,0.5,1.1,1.1,1.1h0.1c0.6,0,1.1-0.5,1.1-1.1v-15.1
		C168.4-20.2,167.9-20.6,167.3-20.6"/>
	<path class="st2" d="M184.1-5.6h-8.4l0,0v-14c0-0.6-0.5-1.1-1.1-1.1h-0.1c-0.6,0-1.1,0.5-1.1,1.1v15.1c0,0.6,0.5,1.1,1.1,1.1h9.6
		c0.6,0,1.1-0.5,1.1-1.1C185.2-5.1,184.7-5.6,184.1-5.6"/>
	<path class="st2" d="M204.1-20.6h-0.3c-0.4,0-0.7,0.2-0.9,0.5l-5.9,8.7H197l-5.9-8.7c-0.2-0.3-0.5-0.5-0.9-0.5h-0.3
		c-0.6,0-1.1,0.5-1.1,1.1v15.1c0,0.6,0.5,1.1,1.1,1.1c0.6,0,1.1-0.5,1.1-1.1v-11.7l0.1,0l5.5,8.1h0.6l5.5-8.1l-0.4-0.3l0.5,0.3v11.7
		c0,0.6,0.5,1.1,1.1,1.1h0.1c0.6,0,1.1-0.5,1.1-1.1v-15.1C205.2-20.2,204.7-20.6,204.1-20.6"/>
	<path class="st2" d="M-8.6-8.7c-0.6,0-1.2-0.3-1.5-0.8c-4.3-7.2-6.5-15.4-6.5-23.8c0-25.6,20.8-46.4,46.4-46.4
		c8.6,0,17,2.4,24.3,6.9c0.8,0.5,1.1,1.6,0.6,2.4c-0.5,0.8-1.6,1.1-2.4,0.6c-6.8-4.2-14.5-6.4-22.5-6.4c-23.7,0-42.9,19.2-42.9,42.9
		c0,7.8,2.1,15.4,6.1,22c0.5,0.8,0.2,1.9-0.6,2.4C-8-8.8-8.3-8.7-8.6-8.7"/>
	<path class="st2" d="M29.7,11.6C14,11.6-0.8,3.2-8.9-10.3c-0.1-0.1,0-0.3,0.1-0.4c0.1-0.1,0.3,0,0.4,0.1
		c8,13.3,22.6,21.6,38.1,21.6c24.4,0,44.3-19.9,44.3-44.3c0-15.5-7.9-29.6-21.1-37.7c-0.1-0.1-0.2-0.3-0.1-0.4
		c0.1-0.1,0.3-0.2,0.4-0.1C66.7-63.3,74.6-49,74.6-33.3C74.6-8.5,54.5,11.6,29.7,11.6"/>
	<path class="st2" d="M29.7,2.8c-5.6,0-11.2-1.3-16.2-3.8c-0.9-0.4-1.2-1.5-0.8-2.3c0.4-0.9,1.5-1.2,2.3-0.8
		c6.7,3.3,14.4,4.3,21.7,2.7c5.9-1.3,11.3-4.2,15.7-8.4C65.4-22.4,65.7-43.1,53.1-56c-4.1-4.2-9.3-7.3-15-8.8
		C37.3-65,36.7-66,37-66.9c0.2-0.9,1.2-1.5,2.1-1.2c6.3,1.7,12,5,16.5,9.7c13.9,14.3,13.5,37.2-0.8,51C50-2.7,44,0.5,37.5,2
		C34.9,2.5,32.3,2.8,29.7,2.8"/>
	<path class="st2" d="M14.3-2.3l-0.1,0c-3.5-1.7-6.6-4-9.3-6.9c-13.3-13.7-13-35.7,0.8-49c8.7-8.4,21.4-11.7,33.1-8.6
		c0.2,0,0.2,0.2,0.2,0.4c0,0.2-0.2,0.2-0.4,0.2C27-69.3,14.6-66,6-57.7C-7.5-44.7-7.8-23,5.3-9.6c2.7,2.8,5.8,5,9.2,6.7
		c0.1,0.1,0.2,0.2,0.1,0.4C14.5-2.3,14.4-2.3,14.3-2.3"/>
	<path class="st1" d="M42.6-51.8H15.8c-1.8,0-3.2,1.4-3.2,3.2c0,1.8,1.4,3.2,3.2,3.2H26v30.9c0,1.8,1.4,3.2,3.2,3.2
		c1.8,0,3.2-1.4,3.2-3.2v-30.9h10.2c1.8,0,3.2-1.4,3.2-3.2C45.8-50.4,44.4-51.8,42.6-51.8"/>
</g>
<g>
	<g>
		<g>
			<defs>
				<path id="SVGID_1_" d="M29.7,21.2c-13.9,9.3-17.6,28.1-8.3,42c9.3,13.9,28.1,17.6,42,8.3c13.9-9.3,17.6-28.1,8.3-42
					c-5.8-8.7-15.4-13.4-25.2-13.4C40.8,16.1,34.9,17.7,29.7,21.2"/>
			</defs>
			<clipPath id="SVGID_2_">
				<use xlink:href="#SVGID_1_"  style="overflow:visible;"/>
			</clipPath>
			
				<radialGradient id="SVGID_3_" cx="-142.2717" cy="527.9488" r="1.2441" gradientTransform="matrix(24.3445 0 0 24.3445 3510.1348 -12806.2666)" gradientUnits="userSpaceOnUse">
				<stop  offset="0" style="stop-color:#76AB3B"/>
				<stop  offset="1" style="stop-color:#008D45"/>
			</radialGradient>
			<rect x="12.1" y="16.1" class="st3" width="68.9" height="64.8"/>
		</g>
		<g>
			<defs>
				<path id="SVGID_4_" d="M30.6,22.5c-13.2,8.8-16.7,26.7-7.9,39.8c8.8,13.2,26.7,16.7,39.8,7.9c13.2-8.8,16.7-26.7,7.9-39.8
					c-5.5-8.3-14.6-12.7-23.9-12.7C41.1,17.6,35.5,19.2,30.6,22.5"/>
			</defs>
			<clipPath id="SVGID_5_">
				<use xlink:href="#SVGID_4_"  style="overflow:visible;"/>
			</clipPath>
			<defs>
				<filter id="Adobe_OpacityMaskFilter" filterUnits="userSpaceOnUse" x="13.9" y="17.6" width="65.4" height="61.4">
					<feColorMatrix  type="matrix" values="1 0 0 0 0  0 1 0 0 0  0 0 1 0 0  0 0 0 1 0"/>
				</filter>
			</defs>
			<mask maskUnits="userSpaceOnUse" x="13.9" y="17.6" width="65.4" height="61.4" id="SVGID_6_">
				<g class="st4">
					<rect x="13.9" y="17.6" class="st5" width="65.4" height="61.4"/>
					<g class="st6">
						
							<linearGradient id="SVGID_7_" gradientUnits="userSpaceOnUse" x1="-143.6761" y1="521.8445" x2="-142.4319" y2="521.8445" gradientTransform="matrix(46.1661 0 0 46.1661 6650.8291 -24043.1816)">
							<stop  offset="0" style="stop-color:#FFFFFF"/>
							<stop  offset="1.206395e-02" style="stop-color:#E5E5E5"/>
							<stop  offset="3.395503e-02" style="stop-color:#BDBCBC"/>
							<stop  offset="5.854917e-02" style="stop-color:#989697"/>
							<stop  offset="8.530650e-02" style="stop-color:#787676"/>
							<stop  offset="0.1149" style="stop-color:#5D5A5B"/>
							<stop  offset="0.1483" style="stop-color:#484445"/>
							<stop  offset="0.1873" style="stop-color:#373334"/>
							<stop  offset="0.2355" style="stop-color:#2C2829"/>
							<stop  offset="0.3031" style="stop-color:#252122"/>
							<stop  offset="0.4909" style="stop-color:#231F20"/>
							<stop  offset="0.6856" style="stop-color:#252122"/>
							<stop  offset="0.7558" style="stop-color:#2C2829"/>
							<stop  offset="0.8058" style="stop-color:#373334"/>
							<stop  offset="0.8462" style="stop-color:#484445"/>
							<stop  offset="0.8809" style="stop-color:#5D5A5B"/>
							<stop  offset="0.9115" style="stop-color:#787676"/>
							<stop  offset="0.9393" style="stop-color:#989697"/>
							<stop  offset="0.9648" style="stop-color:#BDBCBC"/>
							<stop  offset="0.9875" style="stop-color:#E5E5E5"/>
							<stop  offset="1" style="stop-color:#FFFFFF"/>
						</linearGradient>
						<rect x="13.9" y="17.6" class="st7" width="65.4" height="61.4"/>
					</g>
				</g>
			</mask>
			<g class="st8">
				<g>
					<defs>
						<rect id="SVGID_8_" x="13.9" y="17.6" width="65.4" height="61.4"/>
					</defs>
					<clipPath id="SVGID_9_">
						<use xlink:href="#SVGID_8_"  style="overflow:visible;"/>
					</clipPath>
					<g class="st9">
						<defs>
							<rect id="SVGID_10_" x="13.9" y="17.6" width="65.4" height="61.4"/>
						</defs>
						<clipPath id="SVGID_11_">
							<use xlink:href="#SVGID_10_"  style="overflow:visible;"/>
						</clipPath>
						
							<linearGradient id="SVGID_12_" gradientUnits="userSpaceOnUse" x1="-143.6761" y1="521.8445" x2="-142.4319" y2="521.8445" gradientTransform="matrix(46.1661 0 0 46.1661 6650.8291 -24043.1816)">
							<stop  offset="0" style="stop-color:#FFFFFF"/>
							<stop  offset="6.938463e-02" style="stop-color:#FFFFFF"/>
							<stop  offset="0.4909" style="stop-color:#FFFFFF"/>
							<stop  offset="0.928" style="stop-color:#FFFFFF"/>
							<stop  offset="1" style="stop-color:#FFFFFF"/>
						</linearGradient>
						<rect x="13.9" y="17.6" class="st10" width="65.4" height="61.4"/>
					</g>
				</g>
			</g>
		</g>
		<g>
			<path class="st11" d="M17.1,19.9c2.1-2.4,4.6-4.6,7.4-6.5c17.6-11.8,41.3-7.6,53.8,9.3c0.5-0.7,1.1-1.3,1.9-1.7
				c1-0.7,2.1-1.1,3.2-1.2C69.2,0,41.7-5,21.3,8.7c-3.4,2.3-6.5,5-9.1,8C14.2,17.1,15.9,18.2,17.1,19.9"/>
			<path class="st11" d="M90.1,33.5c-0.3,0.3-0.6,0.6-1,0.8c-1.4,0.9-2.9,1.3-4.4,1.3c4.5,16-1.5,33.8-16.1,43.6
				c-4.6,3.1-9.7,5.1-14.8,6c1,1.8,1.2,3.9,0.7,5.8c6-1.1,11.9-3.4,17.4-7C88.8,72.7,95.6,52,90.1,33.5"/>
			<path class="st11" d="M39.8,85.4c-10.3-1.8-19.8-7.6-26.1-17C6.3,57.3,5.2,43.9,9.6,32.3c-2-0.2-3.8-1.2-5.1-2.8
				C-0.9,43,0.2,58.7,8.9,71.6c7.2,10.8,18.3,17.5,30.2,19.5C38.6,89.2,38.8,87.1,39.8,85.4"/>
			<path class="st11" d="M50.1,94c-2.7,1.8-6.4,1.1-8.2-1.6c-1.8-2.7-1.1-6.4,1.6-8.2c2.7-1.8,6.4-1.1,8.2,1.6
				C53.6,88.5,52.8,92.2,50.1,94"/>
			<path class="st11" d="M88,32.6c-2.7,1.8-6.4,1.1-8.2-1.6c-1.8-2.7-1.1-6.4,1.6-8.2c2.7-1.8,6.4-1.1,8.2,1.6
				C91.4,27.1,90.7,30.8,88,32.6"/>
			<path class="st11" d="M13.9,29.3c-2.7,1.8-6.4,1.1-8.2-1.6c-1.8-2.7-1.1-6.4,1.6-8.2c2.7-1.8,6.4-1.1,8.2,1.6
				C17.3,23.8,16.6,27.5,13.9,29.3"/>
			<path class="st12" d="M42.4,63.2V31.9h-2.9c-2,0-3.4,0.2-4,0.7c-0.6,0.5-0.9,1.4-0.9,2.9V37h-4.1v-4.3v-4.3h16.1h16.1v4.3V37
				h-4.1v-1.5c0-1.5-0.3-2.4-0.9-2.9c-0.6-0.5-2-0.7-4-0.7h-2.9v31.3c0,0.7,0.2,1.2,0.6,1.5c0.4,0.3,1.1,0.5,2,0.5h2.5v3.5h-9.3
				h-9.3v-3.5h2.5c1,0,1.6-0.1,2-0.5C42.2,64.5,42.4,64,42.4,63.2"/>
		</g>
	</g>
	<g>
		<path class="st11" d="M109.1,33.8c0,2.4,0.1,8.2,0.1,9.2c0,3.6,3,6.5,6.5,6.5c3.5,0,6.5-2.9,6.5-6.5L122,17h6.3l0,19.5
			c0,2.7,2.1,3.7,3.1,3.7h4.3v5.5h-4.6c-1.2,0-2.1-0.3-2.9-0.8c-0.9,5.9-6.2,10.5-12.5,10.5c-7.1,0-12.7-5.6-12.7-12.4
			c0-1.3-0.2-6.5-0.2-9.2H109.1z"/>
		<path class="st11" d="M142.1,45.7H135v-5.5h5.3c1.3,0,2.3-0.7,2.3-2.1c0-3.1,0-6.2-0.1-9.2h6.3c0,5,0.1,6.3,0.1,10.6
			C148.9,43.3,146.6,45.7,142.1,45.7 M135.3,49.2h5.4v5.2h-5.4V49.2z M142.9,49.2h5.4v5.2h-5.4V49.2z"/>
		<path class="st11" d="M171.5,45.7c-1.6,5.2-5.9,9-12.1,9.5c-1.8-2-2.3-2.7-4.3-4.7c3.3-0.2,7.7-2,9.6-4.7h-2.2
			c-4.9,0-7.9-4.3-7.9-8.2c0-6.7,5.5-8.6,8.9-8.6c1,0,8.1,0.4,8.6,7c0,0.2,0,1.1,0,4.3h5.3v5.5H171.5z M165.9,36.6
			c0-1.6-0.3-3.2-2.4-3.2c-1.9,0-3,1.8-3,3.6c0,1.7,0.9,3.3,2.8,3.3h2.6V36.6z"/>
		<rect x="175.8" y="40.2" class="st11" width="10.3" height="5.5"/>
		<rect x="185.3" y="40.2" class="st11" width="10.3" height="5.5"/>
		<rect x="194.8" y="40.2" class="st11" width="10.3" height="5.5"/>
		<rect x="204.3" y="40.2" class="st11" width="10.3" height="5.5"/>
		<rect x="212.9" y="40.2" class="st11" width="10.3" height="5.5"/>
		<rect x="222.4" y="40.2" class="st11" width="10.3" height="5.5"/>
		<path class="st11" d="M231.9,45.7v-5.5h19.7c-1.1-3.6-3.8-5.8-7-5.8c-4,0-6.1,2-6.1,2l-2.5-4.4c0.8-0.9,3.5-3.1,8.5-3.1
			c7.4,0,11.5,5.3,12.9,11.3h4.7v5.5H231.9z"/>
		<path class="st11" d="M268.6,45.7h-7.1v-5.5h5.3c1.4,0,2.3-0.7,2.3-2.1c0-3.1,0-6.2-0.1-9.2h6.3c0,5,0.1,6.3,0.1,10.6
			C275.4,43.3,273.1,45.7,268.6,45.7 M261.8,20.3h5.4v5.2h-5.4V20.3z M269.4,20.3h5.4v5.2h-5.4V20.3z"/>
	</g>
	<g>
		<path class="st13" d="M111.2,75.9c-1.1,0-1.9-0.3-2.5-1c-0.7,0.4-1.6,0.6-2.6,0.6c-2.1,0-3.4-1.5-3.4-3.9c0-1.3,0.4-2.3,1.3-3.1
			c0.9-0.8,2-1.2,3.4-1.2h0.6l-0.1-0.9c0.9-0.2,1.7-0.4,2.4-0.5v6.7c0,1.1,0.5,1.6,1.5,1.6h1.3v1.8H111.2z M106.7,63.8
			c0,0.6-0.5,1.2-1.2,1.2c-0.7,0-1.2-0.5-1.2-1.2c0-0.6,0.5-1.2,1.2-1.2C106.2,62.6,106.7,63.1,106.7,63.8z M108.2,68.6
			c-0.4,0-0.7,0-1.1,0c-0.7,0-1.3,0.3-1.8,0.8c-0.5,0.5-0.7,1.1-0.7,1.9c0,1.7,0.6,2.6,1.9,2.6c0.6,0,1.2-0.1,1.7-0.2V68.6z
			 M109.9,63.8c0,0.6-0.5,1.2-1.2,1.2s-1.2-0.5-1.2-1.2c0-0.6,0.5-1.2,1.2-1.2C109.4,62.6,109.9,63.1,109.9,63.8z"/>
		<path class="st13" d="M114.7,79.2c0,0.6-0.5,1.2-1.2,1.2c-0.6,0-1.2-0.5-1.2-1.2c0-0.7,0.6-1.2,1.2-1.2
			C114.1,77.9,114.7,78.5,114.7,79.2z M120.1,75.9h-1.5c-0.8,0-1.5-0.2-2-0.6c-0.5,0.4-1.2,0.6-1.9,0.6h-2.4v-1.8h1.9
			c1,0,1.5-0.5,1.5-1.6v-2.1l-0.4-2.6l2.4-0.5v5.1c0,1.1,0.5,1.6,1.5,1.6h1V75.9z M117.9,79.2c0,0.6-0.5,1.2-1.2,1.2
			c-0.7,0-1.2-0.5-1.2-1.2c0-0.7,0.5-1.2,1.2-1.2S117.9,78.5,117.9,79.2z"/>
		<path class="st13" d="M132,75.9h-12.5v-1.8h8.6c-0.5-1.1-1.1-2.2-2-3.4c-1.1-1.5-2.1-2.2-2.9-2.2c-0.6,0-0.9,0.4-0.9,1.1
			c0,0.4,0.1,0.8,0.3,1.3l-2.1,0.2c0.2-2.6,1.6-4.2,3.3-4.2c1.4,0,2.7,0.9,4.1,2.6c1.1,1.4,1.9,2.9,2.5,4.5h1.5V75.9z"/>
		<path class="st13" d="M148.4,75.9h-14.5h-0.1h-2.3v-1.8h1.8c1,0,1.4-0.5,1.4-1.6l0-3.9l2-0.4v4c2.1-3.1,4.4-4.7,6.9-4.7
			c1.4,0,2.6,0.3,3.5,1c0.9,0.6,1.4,1.5,1.4,2.7V75.9z M146.4,71.5c0-1.5-1.1-2.3-3.3-2.3c-1.2,0-2.5,0.7-3.8,2c-1,1.1-1.7,2-2,2.8
			h9V71.5z"/>
		<path class="st13" d="M169.5,73c0,1.8-1.1,2.9-2.9,2.9h-9c-1.1,0-2.1-0.4-2.7-1.2c-0.7-0.8-1-1.8-1-3.1c0-1,0.3-1.9,0.8-2.8h1.8
			c-0.6,0.9-0.9,1.7-0.9,2.4c0,1.9,0.8,2.9,2.4,2.9h8.2c1,0,1.5-0.5,1.5-1.6v-2l-0.4-2.6l2.3-0.5V73z M161.4,67.6
			c0,0.7-0.5,1.2-1.2,1.2c-0.7,0-1.2-0.5-1.2-1.2c0-0.7,0.5-1.2,1.2-1.2C160.8,66.4,161.4,66.9,161.4,67.6z M164.6,67.6
			c0,0.7-0.5,1.2-1.2,1.2c-0.7,0-1.2-0.5-1.2-1.2c0-0.7,0.5-1.2,1.2-1.2C164,66.4,164.6,66.9,164.6,67.6z"/>
		<path class="st13" d="M174.2,63l-0.2,2.7v10.2h-2V65.7l-0.3-2.5L174.2,63z"/>
		<path class="st13" d="M185.1,75.9h-8.9l0.5-1.8h5l0.1-0.4v-2.1c0-1-0.2-1.7-0.6-2.3c-0.4-0.5-0.8-0.8-1.4-0.8
			c-0.2,0-0.4,0-0.6,0.1c0-0.2,0-0.6-0.1-1.1c0.1,0,0.3,0,0.6-0.1c1.2,0,2.2,0.4,2.9,1.3c0.7,0.8,1.1,1.9,1.1,3.2v2.2v0h1.3V75.9z"
			/>
		<path class="st13" d="M186.9,79.2c0,0.6-0.5,1.2-1.2,1.2c-0.6,0-1.2-0.5-1.2-1.2c0-0.7,0.6-1.2,1.2-1.2
			C186.3,77.9,186.9,78.5,186.9,79.2z M190.6,73c0,1.8-1.1,2.9-3,2.9h-3.1v-1.8h2.6c1,0,1.5-0.5,1.5-1.6v-2l-0.3-2.6l2.3-0.5V73z
			 M190,79.2c0,0.6-0.5,1.2-1.2,1.2c-0.7,0-1.2-0.5-1.2-1.2c0-0.7,0.6-1.2,1.2-1.2C189.5,77.9,190,78.5,190,79.2z"/>
		<path class="st13" d="M201.7,75.9h-8.9l0.5-1.8h5l0.1-0.4v-2.1c0-1-0.2-1.7-0.6-2.3c-0.4-0.5-0.8-0.8-1.4-0.8
			c-0.2,0-0.4,0-0.6,0.1c0-0.2,0-0.6-0.1-1.1c0.1,0,0.3,0,0.6-0.1c1.2,0,2.2,0.4,2.9,1.3c0.7,0.8,1.1,1.9,1.1,3.2v2.2v0h1.3V75.9z"
			/>
		<path class="st13" d="M214.2,75.9h-1.4c-0.7,0-1.4-0.2-1.9-0.6c-1,1.2-2.2,1.7-3.5,1.7c-1.1,0-2-0.5-2.6-1.5
			c-0.4,0.2-0.9,0.4-1.5,0.4h-2.1v-1.8h1.5c0.9,0,1.4-0.4,1.4-1.3c0.1-2.9,2-4.6,5-4.6c1,0,1.9,0.2,2.9,0.5l-0.2,2.1v1.8
			c0,1.1,0.5,1.6,1.5,1.6h1V75.9z M209.8,74.5v-3.7l-0.2-1.1c-0.3-0.1-0.6-0.1-1-0.1c-1.7,0-2.5,1-2.5,3.1c0,1.7,0.7,2.7,1.7,2.7
			C208.6,75.4,209.2,75.1,209.8,74.5z"/>
		<path class="st13" d="M219.7,73c0,1.8-1.1,2.9-3,2.9h-3.1v-1.8h2.6c1,0,1.5-0.5,1.5-1.6v-2l-0.3-2.6l2.3-0.5V73z M216.7,64.3
			c0,0.7-0.5,1.2-1.2,1.2c-0.7,0-1.2-0.5-1.2-1.2c0-0.7,0.5-1.2,1.2-1.2C216.1,63.1,216.7,63.6,216.7,64.3z M219.9,64.3
			c0,0.7-0.5,1.2-1.2,1.2c-0.7,0-1.2-0.5-1.2-1.2c0-0.7,0.5-1.2,1.2-1.2C219.3,63.1,219.9,63.6,219.9,64.3z"/>
		<path class="st13" d="M233.3,75.9c-1.1,0-1.9-0.3-2.5-1c-0.7,0.4-1.6,0.6-2.6,0.6c-2.1,0-3.4-1.5-3.4-3.9c0-1.3,0.4-2.3,1.3-3.1
			c0.9-0.8,2-1.2,3.4-1.2h0.6l-0.1-0.9c0.9-0.2,1.7-0.4,2.4-0.5v6.7c0,1.1,0.5,1.6,1.5,1.6h1.3v1.8H233.3z M228.9,63.8
			c0,0.6-0.5,1.2-1.2,1.2c-0.7,0-1.2-0.5-1.2-1.2c0-0.6,0.5-1.2,1.2-1.2C228.4,62.6,228.9,63.1,228.9,63.8z M230.4,68.6
			c-0.4,0-0.7,0-1.1,0c-0.7,0-1.3,0.3-1.8,0.8c-0.5,0.5-0.7,1.1-0.7,1.9c0,1.7,0.6,2.6,1.9,2.6c0.6,0,1.2-0.1,1.7-0.2V68.6z
			 M232.1,63.8c0,0.6-0.5,1.2-1.2,1.2c-0.7,0-1.2-0.5-1.2-1.2c0-0.6,0.5-1.2,1.2-1.2C231.5,62.6,232.1,63.1,232.1,63.8z"/>
		<path class="st13" d="M247.5,75.9h-1.4c-0.7,0-1.4-0.2-1.9-0.6c-1,1.2-2.2,1.7-3.5,1.7c-1.1,0-2-0.5-2.6-1.5
			c-0.4,0.2-0.9,0.4-1.5,0.4h-2.1v-1.8h1.5c0.9,0,1.4-0.4,1.4-1.3c0.1-2.9,2-4.6,5-4.6c1,0,1.9,0.2,2.9,0.5l-0.2,2.1v1.8
			c0,1.1,0.5,1.6,1.5,1.6h1V75.9z M243.1,74.5v-3.7l-0.2-1.1c-0.3-0.1-0.6-0.1-1-0.1c-1.7,0-2.5,1-2.5,3.1c0,1.7,0.7,2.7,1.7,2.7
			C241.9,75.4,242.5,75.1,243.1,74.5z"/>
		<path class="st13" d="M265.1,75.9H247v-1.8h3v-7.8l-0.3-2.5l2.5-0.2l-0.2,2.6v5.8c0.6-1.1,1.4-2.1,2.6-3c1.4-1.1,2.7-1.7,4-1.7
			c1.4,0,2.5,0.3,3.4,1c0.9,0.7,1.4,1.5,1.4,2.7v3.1h1.9V75.9z M261.2,74.1v-2.7c0-1.5-1.1-2.3-3.2-2.3c-1.1,0-2.4,0.7-3.8,2
			c-1.2,1.1-1.9,2.1-2.2,3H261.2z M259.4,64.3c0,0.7-0.5,1.2-1.2,1.2c-0.7,0-1.2-0.5-1.2-1.2c0-0.7,0.5-1.2,1.2-1.2
			C258.9,63.1,259.4,63.6,259.4,64.3z"/>
		<path class="st13" d="M270.6,73c0,1.8-1.1,2.9-3,2.9h-3.1v-1.8h2.6c1,0,1.5-0.5,1.5-1.6v-2l-0.3-2.6l2.3-0.5V73z M269.5,64.3
			c0,0.7-0.5,1.2-1.2,1.2c-0.7,0-1.2-0.5-1.2-1.2c0-0.7,0.5-1.2,1.2-1.2C268.9,63.1,269.5,63.6,269.5,64.3z"/>
		<path class="st13" d="M275.8,62.1h-4.1v-0.7h0.7c0-1.1,0.6-1.9,1.6-1.9c0.4,0,0.8,0.1,1.2,0.4c-0.1,0.2-0.1,0.4-0.2,0.6
			c-0.3-0.3-0.5-0.4-0.7-0.4c-0.6,0-0.8,0.4-0.8,1.3h1l0.7-0.1L275.8,62.1z M275.3,63l-0.2,2.7v10.2h-2V65.7l-0.3-2.5L275.3,63z"/>
	</g>
</g>
</svg>
